#Comment line ignore any data following # character 
#Hierarchical Translation and Rotation (.htr) file 
[Header]	
#Header keywords are followed by a single value 
FileType HTR		#Single word string
DataType HTRS		#Translation followed by rotation and scale data
FileVersion 1		#integer
NumSegments 84		#integer
NumFrames 2		#integer
DataFrameRate 30		#integer, data frame rate in this file
EulerRotationOrder ZYX
CalibrationUnits mm
RotationUnits Degrees
GlobalAxisofGravity Y
BoneLengthAxis Y
ScaleFactor 1.00
[SegmentNames&Hierarchy]
#CHILD	PARENT
MASTER GLOBAL
root MASTER
chest root
L_mid_tent01 root
R_mid_tent01 root
spine01 root
Bip01_Neck chest
L_humerus chest
R_humerus chest
weapon_bone chest
Bip01_Head Bip01_Neck
eye_left_bone Bip01_Head
eye_right_bone Bip01_Head
L_forearm L_humerus
L_front_hand L_forearm
L_weapon_bone L_forearm
L_front_hand01_01 L_front_hand
L_front_hand02_01 L_front_hand
L_front_hand03_01 L_front_hand
L_front_hand01_02 L_front_hand01_01
L_front_hand02_02 L_front_hand02_01
L_front_hand03_02 L_front_hand03_01
R_forearm R_humerus
R_front_hand R_forearm
R_weapon_bone R_forearm
R_front_hand01_01 R_front_hand
R_front_hand02_01 R_front_hand
R_front_hand03_01 R_front_hand
R_front_hand01_02 R_front_hand01_01
R_front_hand02_02 R_front_hand02_01
R_front_hand03_02 R_front_hand03_01
null_rope01_connect L_mid_tent01
Rope1_Seg01 null_rope01_connect
Rope1_Seg02 Rope1_Seg01
Rope1_Seg03 Rope1_Seg02
Rope1_Seg04 Rope1_Seg03
Rope1_Seg05 Rope1_Seg04
Rope1_Seg06 Rope1_Seg05
Rope1_Seg07 Rope1_Seg06
Rope1_Seg09 Rope1_Seg07
L_mid_hand01 Rope1_Seg09
L_mid_hand02 Rope1_Seg09
L_mid_hand03 Rope1_Seg09
null_rope02_connect R_mid_tent01
Rope2_Seg01 null_rope02_connect
Rope2_Seg02 Rope2_Seg01
Rope2_Seg03 Rope2_Seg02
Rope2_Seg04 Rope2_Seg03
Rope2_Seg05 Rope2_Seg04
Rope2_Seg06 Rope2_Seg05
Rope2_Seg07 Rope2_Seg06
Rope2_Seg09 Rope2_Seg07
R_mid_hand01 Rope2_Seg09
R_mid_hand02 Rope2_Seg09
R_mid_hand03 Rope2_Seg09
spine02 spine01
spine03 spine02
pelvis spine03
null_rope03_connect pelvis
null_rope04_connect pelvis
Rope3_Seg01 null_rope03_connect
Rope3_Seg02 Rope3_Seg01
Rope3_Seg03 Rope3_Seg02
Rope3_Seg04 Rope3_Seg03
Rope3_Seg05 Rope3_Seg04
Rope3_Seg06 Rope3_Seg05
Rope3_Seg07 Rope3_Seg06
Rope3_Seg08 Rope3_Seg07
Rope3_Seg09 Rope3_Seg08
R_rear_hand01 Rope3_Seg09
R_rear_hand02 Rope3_Seg09
R_rear_hand03 Rope3_Seg09
Rope4_Seg01 null_rope04_connect
Rope4_Seg02 Rope4_Seg01
Rope4_Seg03 Rope4_Seg02
Rope4_Seg04 Rope4_Seg03
Rope4_Seg05 Rope4_Seg04
Rope4_Seg06 Rope4_Seg05
Rope4_Seg07 Rope4_Seg06
Rope4_Seg08 Rope4_Seg07
Rope4_Seg09 Rope4_Seg08
L_rear_hand01 Rope4_Seg09
L_rear_hand02 Rope4_Seg09
L_rear_hand03 Rope4_Seg09
[BasePosition]
#SegmentName Tx, Ty, Tz, Rx, Ry, Rz, BoneLength
MASTER 0.000000 0.000000 0.000000 -90.000000 0.000000 0.000000 10.000000 
root 0.000000 0.000000 0.000000 0.000000 0.000000 0.000000 10.000000 
chest 0.000000 0.000000 0.000000 0.000000 0.000000 0.000000 10.000000 
L_mid_tent01 0.000000 0.000000 0.000000 0.000000 0.000000 0.000000 10.000000 
R_mid_tent01 0.000000 0.000000 0.000000 0.000000 0.000000 0.000000 10.000000 
spine01 0.000000 0.000000 0.000000 0.000000 0.000000 0.000000 10.000000 
Bip01_Neck 0.000000 0.000000 0.000000 0.000000 0.000000 0.000000 10.000000 
L_humerus 0.000000 0.000000 0.000000 0.000000 0.000000 0.000000 10.000000 
R_humerus 0.000000 0.000000 0.000000 0.000000 0.000000 0.000000 10.000000 
weapon_bone 0.000000 0.000000 0.000000 0.000000 0.000000 0.000000 10.000000 
Bip01_Head 0.000000 0.000000 0.000000 0.000000 0.000000 0.000000 10.000000 
eye_left_bone 0.000000 0.000000 0.000000 0.000000 0.000000 0.000000 10.000000 
eye_right_bone 0.000000 0.000000 0.000000 0.000000 0.000000 0.000000 10.000000 
L_forearm 0.000000 0.000000 0.000000 0.000000 0.000000 0.000000 10.000000 
L_front_hand 0.000000 0.000000 0.000000 0.000000 0.000000 0.000000 10.000000 
L_weapon_bone 0.000000 0.000000 0.000000 0.000000 0.000000 0.000000 10.000000 
L_front_hand01_01 0.000000 0.000000 0.000000 0.000000 0.000000 0.000000 10.000000 
L_front_hand02_01 0.000000 0.000000 0.000000 0.000000 0.000000 0.000000 10.000000 
L_front_hand03_01 0.000000 0.000000 0.000000 0.000000 0.000000 0.000000 10.000000 
L_front_hand01_02 0.000000 0.000000 0.000000 0.000000 0.000000 0.000000 10.000000 
L_front_hand02_02 0.000000 0.000000 0.000000 0.000000 0.000000 0.000000 10.000000 
L_front_hand03_02 0.000000 0.000000 0.000000 0.000000 0.000000 0.000000 10.000000 
R_forearm 0.000000 0.000000 0.000000 0.000000 0.000000 0.000000 10.000000 
R_front_hand 0.000000 0.000000 0.000000 0.000000 0.000000 0.000000 10.000000 
R_weapon_bone 0.000000 0.000000 0.000000 0.000000 0.000000 0.000000 10.000000 
R_front_hand01_01 0.000000 0.000000 0.000000 0.000000 0.000000 0.000000 10.000000 
R_front_hand02_01 0.000000 0.000000 0.000000 0.000000 0.000000 0.000000 10.000000 
R_front_hand03_01 0.000000 0.000000 0.000000 0.000000 0.000000 0.000000 10.000000 
R_front_hand01_02 0.000000 0.000000 0.000000 0.000000 0.000000 0.000000 10.000000 
R_front_hand02_02 0.000000 0.000000 0.000000 0.000000 0.000000 0.000000 10.000000 
R_front_hand03_02 0.000000 0.000000 0.000000 0.000000 0.000000 0.000000 10.000000 
null_rope01_connect 0.000000 0.000000 0.000000 0.000000 0.000000 0.000000 10.000000 
Rope1_Seg01 0.000000 0.000000 0.000000 0.000000 0.000000 0.000000 10.000000 
Rope1_Seg02 0.000000 0.000000 0.000000 0.000000 0.000000 0.000000 10.000000 
Rope1_Seg03 0.000000 0.000000 0.000000 0.000000 0.000000 0.000000 10.000000 
Rope1_Seg04 0.000000 0.000000 0.000000 0.000000 0.000000 0.000000 10.000000 
Rope1_Seg05 0.000000 0.000000 0.000000 0.000000 0.000000 0.000000 10.000000 
Rope1_Seg06 0.000000 0.000000 0.000000 0.000000 0.000000 0.000000 10.000000 
Rope1_Seg07 0.000000 0.000000 0.000000 0.000000 0.000000 0.000000 10.000000 
Rope1_Seg09 0.000000 0.000000 0.000000 0.000000 0.000000 0.000000 10.000000 
L_mid_hand01 0.000000 0.000000 0.000000 0.000000 0.000000 0.000000 10.000000 
L_mid_hand02 0.000000 0.000000 0.000000 0.000000 0.000000 0.000000 10.000000 
L_mid_hand03 0.000000 0.000000 0.000000 0.000000 0.000000 0.000000 10.000000 
null_rope02_connect 0.000000 0.000000 0.000000 0.000000 0.000000 0.000000 10.000000 
Rope2_Seg01 0.000000 0.000000 0.000000 0.000000 0.000000 0.000000 10.000000 
Rope2_Seg02 0.000000 0.000000 0.000000 0.000000 0.000000 0.000000 10.000000 
Rope2_Seg03 0.000000 0.000000 0.000000 0.000000 0.000000 0.000000 10.000000 
Rope2_Seg04 0.000000 0.000000 0.000000 0.000000 0.000000 0.000000 10.000000 
Rope2_Seg05 0.000000 0.000000 0.000000 0.000000 0.000000 0.000000 10.000000 
Rope2_Seg06 0.000000 0.000000 0.000000 0.000000 0.000000 0.000000 10.000000 
Rope2_Seg07 0.000000 0.000000 0.000000 0.000000 0.000000 0.000000 10.000000 
Rope2_Seg09 0.000000 0.000000 0.000000 0.000000 0.000000 0.000000 10.000000 
R_mid_hand01 0.000000 0.000000 0.000000 0.000000 0.000000 0.000000 10.000000 
R_mid_hand02 0.000000 0.000000 0.000000 0.000000 0.000000 0.000000 10.000000 
R_mid_hand03 0.000000 0.000000 0.000000 0.000000 0.000000 0.000000 10.000000 
spine02 0.000000 0.000000 0.000000 0.000000 0.000000 0.000000 10.000000 
spine03 0.000000 0.000000 0.000000 0.000000 0.000000 0.000000 10.000000 
pelvis 0.000000 0.000000 0.000000 0.000000 0.000000 0.000000 10.000000 
null_rope03_connect 0.000000 0.000000 0.000000 0.000000 0.000000 0.000000 10.000000 
null_rope04_connect 0.000000 0.000000 0.000000 0.000000 0.000000 0.000000 10.000000 
Rope3_Seg01 0.000000 0.000000 0.000000 0.000000 0.000000 0.000000 10.000000 
Rope3_Seg02 0.000000 0.000000 0.000000 0.000000 0.000000 0.000000 10.000000 
Rope3_Seg03 0.000000 0.000000 0.000000 0.000000 0.000000 0.000000 10.000000 
Rope3_Seg04 0.000000 0.000000 0.000000 0.000000 0.000000 0.000000 10.000000 
Rope3_Seg05 0.000000 0.000000 0.000000 0.000000 0.000000 0.000000 10.000000 
Rope3_Seg06 0.000000 0.000000 0.000000 0.000000 0.000000 0.000000 10.000000 
Rope3_Seg07 0.000000 0.000000 0.000000 0.000000 0.000000 0.000000 10.000000 
Rope3_Seg08 0.000000 0.000000 0.000000 0.000000 0.000000 0.000000 10.000000 
Rope3_Seg09 0.000000 0.000000 0.000000 0.000000 0.000000 0.000000 10.000000 
R_rear_hand01 0.000000 0.000000 0.000000 0.000000 0.000000 0.000000 10.000000 
R_rear_hand02 0.000000 0.000000 0.000000 0.000000 0.000000 0.000000 10.000000 
R_rear_hand03 0.000000 0.000000 0.000000 0.000000 0.000000 0.000000 10.000000 
Rope4_Seg01 0.000000 0.000000 0.000000 0.000000 0.000000 0.000000 10.000000 
Rope4_Seg02 0.000000 0.000000 0.000000 0.000000 0.000000 0.000000 10.000000 
Rope4_Seg03 0.000000 0.000000 0.000000 0.000000 0.000000 0.000000 10.000000 
Rope4_Seg04 0.000000 0.000000 0.000000 0.000000 0.000000 0.000000 10.000000 
Rope4_Seg05 0.000000 0.000000 0.000000 0.000000 0.000000 0.000000 10.000000 
Rope4_Seg06 0.000000 0.000000 0.000000 0.000000 0.000000 0.000000 10.000000 
Rope4_Seg07 0.000000 0.000000 0.000000 0.000000 0.000000 0.000000 10.000000 
Rope4_Seg08 0.000000 0.000000 0.000000 0.000000 0.000000 0.000000 10.000000 
Rope4_Seg09 0.000000 0.000000 0.000000 0.000000 0.000000 0.000000 10.000000 
L_rear_hand01 0.000000 0.000000 0.000000 0.000000 0.000000 0.000000 10.000000 
L_rear_hand02 0.000000 0.000000 0.000000 0.000000 0.000000 0.000000 10.000000 
L_rear_hand03 0.000000 0.000000 0.000000 0.000000 0.000000 0.000000 10.000000 
#Beginning of Data. Separated by tabs
#Fr	Tx	Ty	Tz	Rx	Ry	Rz	SF
[MASTER]
28 0.000000 0.000000 0.000000 0.001660 0.001660 0.001660 0.000000
29 0.000000 0.000000 0.000000 0.001660 0.001660 0.001660 0.000000
[root]
28 -16.502291 -62.822117 1616.636963 -91.629700 -27.676081 -90.148109 1617.941406
29 -16.502291 -62.822117 1611.739380 -91.629700 -27.676079 -90.148109 1613.047729
[chest]
28 -84.512650 -34.090519 0.000000 -1.531571 0.293415 -173.131302 91.129311
29 -84.512650 -34.090519 0.000000 -1.771548 0.353512 -175.598923 91.129311
[L_mid_tent01]
28 27.299639 22.177345 -249.917877 -7.605224 36.417538 63.243153 252.380768
29 27.299660 22.177319 -249.917847 -11.027725 34.726326 57.804329 252.380737
[R_mid_tent01]
28 23.228794 24.509907 226.238495 168.725693 -42.428776 71.711380 228.744751
29 23.228794 24.509907 226.238495 171.432175 -39.714367 66.758888 228.744751
[spine01]
28 -0.361383 -0.195265 0.000000 0.001891 0.001390 17.357883 0.410763
29 -0.361383 -0.195265 0.000000 0.001888 0.001395 17.097969 0.410763
[Bip01_Neck]
28 165.484543 71.581718 0.000119 175.896118 1.177290 24.871183 180.302734
29 165.484543 71.581718 0.000119 175.896118 1.177290 24.871183 180.302734
[L_humerus]
28 -13.983130 -135.272980 -120.471481 -177.184937 5.594296 -120.319710 181.680161
29 -13.983130 -135.272980 -120.471481 -179.404373 11.397041 -118.384392 181.680161
[R_humerus]
28 -13.983309 -135.273102 125.287651 -179.639542 -1.607785 -121.842133 184.909012
29 -13.983309 -135.273102 125.287651 -177.008881 -9.481160 -118.304878 184.909012
[weapon_bone]
28 235.964890 -300.705902 0.000000 0.000000 -89.951546 -128.212341 382.234833
29 235.964890 -300.705902 0.000000 0.000000 -89.951546 -128.212341 382.234833
[Bip01_Head]
28 114.148163 80.326118 9.383897 2.573951 3.549820 -21.591867 139.893341
29 125.852394 132.873734 13.073615 2.036256 3.666011 -22.532980 183.480713
[eye_left_bone]
28 -24.626970 125.451866 -64.772606 0.000000 -90.000000 -99.840431 143.318359
29 -24.626970 125.451866 -64.772606 0.000000 -90.000000 -99.840431 143.318359
[eye_right_bone]
28 -24.626970 125.451866 64.327362 0.000000 -89.960434 80.159386 143.117676
29 -24.626970 125.451866 64.327362 0.000000 -89.960434 80.159386 143.117676
[L_forearm]
28 322.776093 0.000000 -0.000119 0.000017 0.002347 -89.149834 322.776093
29 322.776093 0.000000 -0.000119 0.000017 0.002347 -89.149834 322.776093
[L_front_hand]
28 241.149185 -0.042021 -3.300071 -179.769135 -2.258318 2.762549 241.171753
29 241.149185 -0.042021 -3.300071 -179.736847 -2.251775 1.881207 241.171753
[L_weapon_bone]
28 152.135681 29.161402 0.001068 0.001923 0.001346 20.014582 154.905304
29 151.909821 30.788357 0.001170 0.001912 0.001361 19.116243 154.998428
[L_front_hand01_01]
28 86.095154 20.947098 -0.655860 0.405585 -0.442306 -4.620490 88.609184
29 86.095154 20.947098 -0.655860 0.405585 -0.442306 -4.620490 88.609184
[L_front_hand02_01]
28 86.935165 -11.437475 24.513514 116.959450 3.630817 1.495453 91.046425
29 86.935165 -11.437475 24.513514 116.959450 3.630817 1.495453 91.046425
[L_front_hand03_01]
28 86.637497 -14.123976 -20.424902 -118.420097 -4.656303 -0.152527 90.126129
29 86.637497 -14.123976 -20.424902 -118.420097 -4.656303 -0.152527 90.126129
[L_front_hand01_02]
28 71.020905 -0.000179 0.000030 0.000004 -0.000005 -8.379269 71.020905
29 71.020905 -0.000179 0.000030 0.000004 -0.000005 -8.379269 71.020905
[L_front_hand02_02]
28 71.020927 -0.000119 0.000060 -0.000005 -0.000004 -8.379259 71.020927
29 71.020927 -0.000119 0.000060 -0.000005 -0.000004 -8.379259 71.020927
[L_front_hand03_02]
28 71.020905 -0.000060 0.000060 0.000015 -0.000040 -8.379267 71.020905
29 71.020905 -0.000060 0.000060 0.000015 -0.000040 -8.379267 71.020905
[R_forearm]
28 322.776428 -0.000060 0.000030 0.213214 -0.010705 -88.623550 322.776428
29 322.776428 -0.000060 0.000030 0.213000 -0.014338 -86.669846 322.776428
[R_front_hand]
28 238.847015 -0.006795 2.210259 -0.389452 1.682596 -1.705677 238.857239
29 238.847015 -0.006795 2.210259 -0.471420 1.660628 -4.631235 238.857239
[R_weapon_bone]
28 155.664093 0.002503 -0.000030 0.003403 0.001403 -98.413628 155.664078
29 155.664093 0.002503 -0.000030 0.003421 0.001359 -96.948738 155.664078
[R_front_hand01_01]
28 87.624611 14.231146 22.918642 -116.960213 3.496675 -1.324139 91.683487
29 87.624611 14.231146 22.918642 -116.960213 3.496675 -1.324139 91.683487
[R_front_hand02_01]
28 89.356956 14.367283 -19.491137 118.419647 -4.257089 0.609827 92.579636
29 89.356956 14.367283 -19.491137 118.419647 -4.257089 0.609827 92.579636
[R_front_hand03_01]
28 87.286232 -22.307278 -0.143439 -0.387970 -0.231462 4.232001 90.091743
29 87.286232 -22.307278 -0.143439 -0.387970 -0.231462 4.232001 90.091743
[R_front_hand01_02]
28 71.020905 0.000060 0.000119 -0.000005 -0.000020 8.379271 71.020905
29 71.020905 0.000060 0.000119 -0.000005 -0.000020 8.379271 71.020905
[R_front_hand02_02]
28 71.020844 -0.000030 -0.000119 0.000000 -0.000021 8.379271 71.020836
29 71.020844 -0.000030 -0.000119 0.000000 -0.000021 8.379271 71.020836
[R_front_hand03_02]
28 71.020905 0.000000 0.000030 -0.000001 -0.000020 8.379275 71.020905
29 71.020905 0.000000 0.000030 -0.000001 -0.000020 8.379275 71.020905
[null_rope01_connect]
28 328.732483 0.000000 -0.000238 -138.601929 -51.226158 -169.375092 328.732483
29 328.732483 0.000000 -0.000238 -139.352386 -52.094063 -164.148621 328.732483
[Rope1_Seg01]
28 0.000017 -0.000047 0.000118 -172.302475 52.801155 -143.137741 0.000128
29 0.000015 -0.000046 0.000122 -167.506912 48.195007 -137.203293 0.000131
[Rope1_Seg02]
28 139.999863 -0.000179 0.000000 9.585173 -6.880065 -2.524959 139.999863
29 139.999863 -0.000179 0.000000 13.262191 -7.096559 -3.298825 139.999863
[Rope1_Seg03]
28 139.999924 0.000060 -0.000060 9.764416 -9.514140 -1.828944 139.999924
29 139.999924 0.000060 -0.000060 12.245485 -9.542746 -2.032547 139.999924
[Rope1_Seg04]
28 139.999924 -0.000060 -0.000119 11.430432 -12.836443 -3.534127 139.999924
29 139.999924 -0.000060 -0.000119 12.495855 -11.982765 -2.800635 139.999924
[Rope1_Seg05]
28 139.999832 0.000119 -0.000060 3.004706 -13.373242 6.158323 139.999832
29 139.999832 0.000119 -0.000060 3.640476 -11.437177 5.104300 139.999832
[Rope1_Seg06]
28 139.999954 0.000119 -0.000060 -1.573865 -4.049735 9.292696 139.999954
29 139.999954 0.000119 -0.000060 -2.016871 -4.198144 9.262314 139.999954
[Rope1_Seg07]
28 139.999985 0.000060 0.000000 -0.216980 -2.806995 3.871470 139.999985
29 139.999985 0.000060 0.000000 -0.502281 -2.962718 4.740750 139.999985
[Rope1_Seg09]
28 121.602913 0.000119 -0.000089 -89.793175 -1.359789 0.847147 121.602913
29 121.602913 0.000119 -0.000089 -89.793175 -1.359789 0.847147 121.602913
[L_mid_hand01]
28 103.859421 1.038730 8.195221 104.352036 0.341479 -0.444584 104.187431
29 103.859421 1.038730 8.195221 104.352036 0.341479 -0.444583 104.187431
[L_mid_hand02]
28 105.572853 -4.139662 -10.864139 -135.608444 3.905687 -3.381056 106.211075
29 105.572853 -4.139662 -10.864139 -135.608444 3.905687 -3.381056 106.211075
[L_mid_hand03]
28 104.641464 17.579376 -3.913581 -18.761518 -0.324361 2.942912 106.179977
29 104.641464 17.579376 -3.913581 -18.761518 -0.324361 2.942912 106.179977
[null_rope02_connect]
28 328.732849 0.000179 -0.000119 -116.641052 47.834942 13.349775 328.732849
29 328.732849 0.000179 -0.000119 -114.714462 50.955036 11.599667 328.732849
[Rope2_Seg01]
28 0.000123 0.000114 -0.000118 -153.182022 55.153793 -40.951103 0.000205
29 0.000122 0.000114 -0.000122 -161.404861 52.231770 -45.853798 0.000207
[Rope2_Seg02]
28 139.999741 -0.000060 -0.000119 0.309504 -5.948093 2.273730 139.999756
29 139.999741 -0.000060 -0.000119 0.195604 -5.009179 2.017929 139.999756
[Rope2_Seg03]
28 140.000107 0.000030 0.000000 0.186636 -6.982507 2.735543 140.000107
29 140.000107 0.000030 0.000000 0.117780 -6.068547 2.481827 140.000107
[Rope2_Seg04]
28 139.999802 0.000000 -0.000060 0.685663 -7.301598 2.019648 139.999802
29 139.999802 0.000000 -0.000060 0.849679 -7.204923 1.960236 139.999802
[Rope2_Seg05]
28 139.999985 -0.000060 0.000119 0.045401 -7.782640 2.928547 139.999985
29 139.999985 -0.000060 0.000119 0.121818 -7.883786 2.933356 139.999985
[Rope2_Seg06]
28 139.999893 -0.000030 -0.000119 -1.673255 -11.382536 8.192765 139.999893
29 139.999893 -0.000030 -0.000119 -2.454974 -9.692055 8.990857 139.999893
[Rope2_Seg07]
28 139.999893 0.000060 -0.000060 -1.397477 -13.296512 10.346184 139.999893
29 139.999893 0.000060 -0.000060 -2.060979 -11.463693 11.551799 139.999893
[Rope2_Seg09]
28 121.338966 0.000089 -0.000060 33.793236 -1.359788 -0.847141 121.338966
29 121.338966 0.000089 -0.000060 33.793236 -1.359788 -0.847141 121.338966
[R_mid_hand01]
28 104.680779 11.144459 -10.335981 -47.384258 2.963522 5.452604 105.778534
29 104.680779 11.144459 -10.335981 -47.384258 2.963522 5.452604 105.778534
[R_mid_hand02]
28 104.070427 2.443552 8.231699 75.626297 -2.250001 1.111093 104.424065
29 104.070427 2.443552 8.231699 75.626297 -2.250001 1.111093 104.424065
[R_mid_hand03]
28 106.028137 -11.221827 -5.996406 -164.381912 2.495983 -6.140520 106.788818
29 106.028137 -11.221827 -5.996406 -164.381912 2.495983 -6.140520 106.788818
[spine02]
28 129.756927 0.001550 0.000119 -0.664734 -4.011693 1.504668 129.756927
29 129.756927 0.001550 0.000119 -0.616487 -4.020712 0.832444 129.756927
[spine03]
28 78.766769 0.061147 -3.408545 -0.121655 4.388704 -10.971497 78.840508
29 78.747704 0.064509 -3.594830 -0.045804 4.380538 -10.049867 78.829742
[pelvis]
28 169.435242 0.051022 0.000000 -1.886987 -1.126511 2.394738 169.435257
29 169.435242 0.051022 0.000000 -1.626843 -1.006599 1.806630 169.435257
[null_rope03_connect]
28 -1.257226 -2.466202 137.391083 -168.612549 -86.450943 -83.985725 137.418976
29 -1.257226 -2.466202 137.391083 -166.974030 -86.767349 -85.035896 137.418976
[null_rope04_connect]
28 -1.259640 -2.480268 -137.844437 -168.612549 -86.450943 -83.985725 137.872513
29 -1.259640 -2.480268 -137.844437 -166.974030 -86.767349 -85.035896 137.872513
[Rope3_Seg01]
28 -0.000040 -0.000003 -0.000002 -131.028152 9.018597 -79.190460 0.000041
29 -0.000040 -0.000008 -0.000002 -130.999619 10.246678 -78.490395 0.000041
[Rope3_Seg02]
28 139.999924 -0.000119 0.000060 -1.161371 8.086617 -15.717661 139.999924
29 139.999924 -0.000119 0.000060 -0.363829 6.140137 -10.771281 139.999924
[Rope3_Seg03]
28 139.999924 -0.000119 0.000119 -9.020563 13.009326 -27.840446 139.999924
29 139.999924 -0.000119 0.000119 -4.398177 10.672702 -20.010252 139.999924
[Rope3_Seg04]
28 139.999924 0.000119 0.000000 -13.622526 13.764867 -22.401283 139.999924
29 139.999924 0.000119 0.000000 -13.055619 15.038300 -26.851719 139.999924
[Rope3_Seg05]
28 139.999924 -0.000238 0.000060 -2.150154 5.434918 -0.268769 139.999924
29 139.999924 -0.000238 0.000060 -1.200716 4.150220 0.279831 139.999924
[Rope3_Seg06]
28 139.999893 -0.000119 -0.000060 -0.651522 3.692209 0.920894 139.999893
29 139.999893 -0.000119 -0.000060 0.774799 1.062677 3.333079 139.999893
[Rope3_Seg07]
28 139.999771 0.000060 -0.000119 -0.838283 3.646950 -0.737574 139.999771
29 139.999771 0.000060 -0.000119 -0.008246 2.222409 0.253798 139.999771
[Rope3_Seg08]
28 139.999985 -0.000060 0.000000 -0.289919 2.424087 -0.454623 139.999985
29 139.999985 -0.000060 0.000000 0.236058 1.400988 0.157887 139.999985
[Rope3_Seg09]
28 90.185997 -0.000179 -0.000060 89.793228 -1.359877 -0.847183 90.185997
29 90.185997 -0.000179 -0.000060 89.793228 -1.359877 -0.847183 90.185997
[R_rear_hand01]
28 103.366196 -6.073594 -10.757982 -156.049316 6.070419 -2.795869 104.101845
29 103.366196 -6.073594 -10.757982 -156.049316 6.070419 -2.795869 104.101845
[R_rear_hand02]
28 100.509819 12.039542 -7.992327 -38.708435 1.958051 5.461186 101.543350
29 100.509819 12.039542 -7.992327 -38.708416 1.958050 5.461185 101.543350
[R_rear_hand03]
28 101.539970 5.215704 5.435467 84.307625 -2.361032 4.099037 101.819031
29 101.539970 5.215704 5.435467 84.307625 -2.361032 4.099037 101.819031
[Rope4_Seg01]
28 -0.000022 -0.000071 -0.000135 46.790100 3.268281 -99.468132 0.000154
29 -0.000023 -0.000076 -0.000137 46.699173 2.644278 -101.063606 0.000159
[Rope4_Seg02]
28 139.999985 0.000060 0.000119 -1.194389 -16.131565 11.167593 139.999985
29 139.999985 0.000060 0.000119 -0.509797 -10.229373 8.147781 139.999985
[Rope4_Seg03]
28 139.999924 0.000000 -0.000238 2.066254 -18.571295 10.647190 139.999924
29 139.999924 0.000000 -0.000238 0.799194 -13.001945 9.284280 139.999924
[Rope4_Seg04]
28 139.999985 0.000000 0.000119 4.557889 -12.374829 10.636901 139.999985
29 139.999985 0.000000 0.000119 2.604277 -12.359277 9.648934 139.999985
[Rope4_Seg05]
28 139.999802 -0.000060 -0.000119 4.994508 -3.557694 13.848063 139.999802
29 139.999802 -0.000060 -0.000119 3.290836 -4.184262 12.108846 139.999802
[Rope4_Seg06]
28 139.999924 0.000000 0.000060 2.949220 -1.649720 9.733123 139.999924
29 139.999924 0.000000 0.000060 2.201295 -1.771139 9.571455 139.999924
[Rope4_Seg07]
28 139.999802 0.000000 0.000000 1.726729 -1.246883 6.253273 139.999802
29 139.999802 0.000000 0.000000 1.369153 -1.721945 6.583492 139.999802
[Rope4_Seg08]
28 139.999924 0.000000 0.000119 -0.569129 -0.642399 3.833633 139.999924
29 139.999924 0.000000 0.000119 -0.751354 -0.975764 4.153684 139.999924
[Rope4_Seg09]
28 90.185791 0.000060 0.000060 -135.617828 2.228885 0.850567 90.185791
29 90.185791 0.000060 0.000060 -135.617828 2.228885 0.850567 90.185791
[L_rear_hand01]
28 101.696655 -8.392275 -7.654577 -38.746338 0.246096 177.290207 102.329041
29 101.696655 -8.392275 -7.654577 -38.746338 0.246096 177.290207 102.329041
[L_rear_hand02]
28 102.726799 -1.568258 5.773216 84.315163 -1.142796 176.247437 102.900848
29 102.726799 -1.568258 5.773216 84.315140 -1.142796 176.247437 102.900848
[L_rear_hand03]
28 104.552910 9.721220 -10.420293 -155.747955 -4.630845 179.564758 105.519653
29 104.552910 9.721220 -10.420293 -155.747955 -4.630845 179.564758 105.519653
